<svg width="34" height="20" viewBox="0 0 34 20" fill="none" xmlns="http://www.w3.org/2000/svg">
<path d="M27.2565 20C27.104 20 26.9578 19.9394 26.8499 19.8316C26.7421 19.7238 26.6815 19.5775 26.6815 19.425V13.9035C26.6815 13.751 26.6209 13.6048 26.5131 13.497C26.4053 13.3891 26.259 13.3285 26.1065 13.3285H20.5865C20.434 13.3285 20.2878 13.268 20.1799 13.1601C20.0721 13.0523 20.0115 12.906 20.0115 12.7535V7.24502C20.0115 7.09252 19.9509 6.94627 19.8431 6.83844C19.7353 6.7306 19.589 6.67002 19.4365 6.67002L13.9165 6.67002C13.764 6.67002 13.6177 6.7306 13.5099 6.83844C13.4021 6.94627 13.3415 7.09252 13.3415 7.24502V12.7535C13.3415 12.906 13.2809 13.0523 13.1731 13.1601C13.0652 13.268 12.919 13.3285 12.7665 13.3285H7.24502C7.09252 13.3285 6.94627 13.3891 6.83844 13.497C6.7306 13.6048 6.67002 13.751 6.67002 13.9035L6.67002 19.425C6.67002 19.5775 6.60944 19.7238 6.50161 19.8316C6.39377 19.9394 6.24752 20 6.09502 20H0.575002C0.422502 20 0.276247 19.9394 0.168414 19.8316C0.0605799 19.7238 0 19.5775 0 19.425L0 13.9035C0 13.751 0.0605799 13.6048 0.168414 13.497C0.276247 13.3891 0.422502 13.3285 0.575002 13.3285H6.09502C6.24752 13.3285 6.39377 13.268 6.50161 13.1601C6.60944 13.0523 6.67002 12.906 6.67002 12.7535V7.23352C6.67002 7.08102 6.7306 6.93477 6.83844 6.82694C6.94627 6.7191 7.09252 6.65852 7.24502 6.65852H12.7665C12.919 6.65852 13.0652 6.59794 13.1731 6.49011C13.2809 6.38227 13.3415 6.23602 13.3415 6.08352V0.431251C13.3415 0.316876 13.3869 0.207188 13.4678 0.126312C13.5487 0.0454371 13.6584 0 13.7727 0L19.5803 0C19.6946 0 19.8043 0.0454371 19.8852 0.126312C19.9661 0.207188 20.0115 0.316876 20.0115 0.431251V6.08352C20.0115 6.23602 20.0721 6.38227 20.1799 6.49011C20.2878 6.59794 20.434 6.65852 20.5865 6.65852H26.1065C26.259 6.65852 26.4053 6.7191 26.5131 6.82694C26.6209 6.93477 26.6815 7.08102 26.6815 7.23352V12.7535C26.6815 12.906 26.7421 13.0523 26.8499 13.1601C26.9578 13.268 27.104 13.3285 27.2565 13.3285L32.778 13.3285C32.9305 13.3285 33.0767 13.3891 33.1846 13.497C33.2924 13.6048 33.353 13.751 33.353 13.9035V19.425C33.353 19.5775 33.2924 19.7238 33.1846 19.8316C33.0767 19.9394 32.9305 20 32.778 20H27.2565Z" fill="white"/>
</svg>
